<svg xmlns="http://www.w3.org/2000/svg" width="28" height="21" fill="none"><mask id="a" fill="#fff"><path d="M25.846 15.736v-3.168c-1.192-.58-2.154-1.74-2.154-3.389v-.002c0-1.647.963-2.805 2.154-3.386V2.623H9.677C9.086 2.623 8.6 2.03 8.6 1.31 8.6.591 9.086 0 9.677 0H26.923C27.514 0 28 .591 28 1.311v5.246c0 .72-.486 1.311-1.077 1.311h-.002c-.605 0-1.075.572-1.075 1.309v.002c0 .741.469 1.312 1.077 1.312.591 0 1.077.591 1.077 1.311v5.246c0 .72-.486 1.31-1.077 1.31h-1.077v1.331c0 .72-.486 1.311-1.077 1.311s-1.077-.591-1.077-1.311V18.359h-2.154V19.689c0 .72-.485 1.311-1.076 1.311-.592 0-1.077-.591-1.077-1.311V18.359h-6.462V19.689c0 .72-.486 1.311-1.077 1.311s-1.077-.591-1.077-1.311V18.359H8.615V19.689c0 .72-.485 1.311-1.077 1.311-.59 0-1.076-.591-1.076-1.311V18.359H4.308V19.689c0 .72-.486 1.311-1.077 1.311s-1.077-.591-1.077-1.311V18.359H1.077C.486 18.359 0 17.767 0 17.048v-5.246c0-.72.486-1.311 1.077-1.311.608 0 1.077-.57 1.077-1.312v-.002c0-.737-.47-1.309-1.075-1.309h-.002C.486 7.868 0 7.277 0 6.557V1.31C0 .591.486 0 1.077 0H5.4c.59 0 1.077.591 1.077 1.311S5.99 2.623 5.4 2.623H2.154V5.79c1.19.58 2.154 1.739 2.154 3.386v.002c0 1.649-.962 2.808-2.154 3.389v3.168h23.692Z"/></mask><path fill="#B7B7B7" d="M25.846 15.736v-3.168c-1.192-.58-2.154-1.74-2.154-3.389v-.002c0-1.647.963-2.805 2.154-3.386V2.623H9.677C9.086 2.623 8.6 2.03 8.6 1.31 8.6.591 9.086 0 9.677 0H26.923C27.514 0 28 .591 28 1.311v5.246c0 .72-.486 1.311-1.077 1.311h-.002c-.605 0-1.075.572-1.075 1.309v.002c0 .741.469 1.312 1.077 1.312.591 0 1.077.591 1.077 1.311v5.246c0 .72-.486 1.31-1.077 1.31h-1.077v1.331c0 .72-.486 1.311-1.077 1.311s-1.077-.591-1.077-1.311V18.359h-2.154V19.689c0 .72-.485 1.311-1.076 1.311-.592 0-1.077-.591-1.077-1.311V18.359h-6.462V19.689c0 .72-.486 1.311-1.077 1.311s-1.077-.591-1.077-1.311V18.359H8.615V19.689c0 .72-.485 1.311-1.077 1.311-.59 0-1.076-.591-1.076-1.311V18.359H4.308V19.689c0 .72-.486 1.311-1.077 1.311s-1.077-.591-1.077-1.311V18.359H1.077C.486 18.359 0 17.767 0 17.048v-5.246c0-.72.486-1.311 1.077-1.311.608 0 1.077-.57 1.077-1.312v-.002c0-.737-.47-1.309-1.075-1.309h-.002C.486 7.868 0 7.277 0 6.557V1.31C0 .591.486 0 1.077 0H5.4c.59 0 1.077.591 1.077 1.311S5.99 2.623 5.4 2.623H2.154V5.79c1.19.58 2.154 1.739 2.154 3.386v.002c0 1.649-.962 2.808-2.154 3.389v3.168h23.692Z"/><path fill="#fff" d="M25.846 15.736v.2h.2v-.2h-.2Zm0-3.168h.2v-.125l-.112-.055-.088.18Zm0-6.777.088.18.112-.055V5.79h-.2Zm0-3.168h.2v-.2h-.2v.2Zm0 15.736v-.2h-.2v.2h.2Zm-2.154 0h.2v-.2h-.2v.2Zm-2.154 0v-.2h-.2v.2h.2Zm-2.153 0h.2v-.2h-.2v.2Zm-6.462 0v-.2h-.2v.2h.2Zm-2.154 0h.2v-.2h-.2v.2Zm-2.154 0v-.2h-.2v.2h.2Zm-2.153 0h.2v-.2h-.2v.2Zm-2.154 0v-.2h-.2v.2h.2Zm-2.154 0h.2v-.2h-.2v.2Zm0-15.736v-.2h-.2v.2h.2Zm0 3.168h-.2v.125l.112.055.088-.18Zm0 6.777-.088-.18-.112.055v.125h.2Zm0 3.168h-.2v.2h.2v-.2Zm23.892 0v-3.168h-.4v3.168h.4Zm-.112-3.348c-1.136-.553-2.042-1.65-2.042-3.209h-.4c0 1.738 1.018 2.96 2.267 3.569l.175-.36ZM23.892 9.18v-.002h-.4v.002h.4Zm0-.002c0-1.558.907-2.653 2.042-3.206l-.175-.36c-1.248.609-2.267 1.83-2.267 3.566h.4Zm2.154-3.386V2.623h-.4V5.79h.4Zm-.2-3.368H9.692v.4h16.154v-.4Zm-16.154 0H9.677v.4H9.693v-.4Zm-.015 0c-.446 0-.877-.464-.877-1.112h-.4c0 .792.54 1.512 1.277 1.512v-.4ZM8.8 1.31C8.8.663 9.231.2 9.677.2v-.4C8.941-.2 8.4.52 8.4 1.311h.4ZM9.677.2H9.693v-.4H9.677v.4Zm.015 0h17.231v-.4H9.693v.4Zm17.231 0c.446 0 .877.463.877 1.111h.4C28.2.52 27.66-.2 26.923-.2v.4Zm.877 1.111v5.246h.4V1.31h-.4Zm0 5.246c0 .648-.431 1.111-.877 1.111v.4c.737 0 1.277-.72 1.277-1.511h-.4Zm-.877 1.111h-.002v.4h.002v-.4Zm-.002 0c-.75 0-1.275.7-1.275 1.509h.4c0-.665.415-1.109.875-1.109v-.4Zm-1.275 1.509v.002h.4v-.002h-.4Zm0 .002c0 .813.523 1.512 1.277 1.512v-.4c-.463 0-.877-.442-.877-1.112h-.4Zm1.277 1.512c.446 0 .877.463.877 1.111h.4c0-.792-.54-1.511-1.277-1.511v.4Zm.877 1.111v5.246h.4v-5.246h-.4Zm0 5.246c0 .648-.431 1.11-.877 1.11v.4c.737 0 1.277-.719 1.277-1.51h-.4Zm-.877 1.11h-1.077v.4h1.077v-.4Zm-1.277.2v1.312h.4V18.36h-.4Zm0 1.312V19.689h.4V19.67h-.4Zm0 .019c0 .648-.431 1.111-.877 1.111v.4c.737 0 1.277-.72 1.277-1.511h-.4ZM24.77 20.8c-.445 0-.877-.463-.877-1.111h-.4c0 .791.54 1.511 1.277 1.511v-.4Zm-.877-1.111V19.67h-.4V19.689h.4Zm0-.019V18.36h-.4v1.311h.4Zm-.2-1.511h-2.154v.4h2.154v-.4Zm-2.354.2v1.311h.4V18.36h-.4Zm0 1.311V19.689h.4V19.67h-.4Zm0 .019c0 .648-.43 1.111-.877 1.111v.4c.737 0 1.277-.72 1.277-1.511h-.4Zm-.877 1.111c-.445 0-.876-.463-.876-1.111h-.4c0 .791.54 1.511 1.277 1.511v-.4Zm-.876-1.111V19.67h-.4V19.689h.4Zm0-.019V18.36h-.4v1.311h.4Zm-.2-1.511h-6.462v.4h6.462v-.4Zm-6.662.2v1.311h.4V18.36h-.4Zm0 1.311V19.689h.4V19.67h-.4Zm0 .019c0 .648-.431 1.111-.877 1.111v.4c.737 0 1.277-.72 1.277-1.511h-.4Zm-.877 1.111c-.446 0-.877-.463-.877-1.111h-.4c0 .791.54 1.511 1.277 1.511v-.4Zm-.877-1.111V19.67h-.4V19.689h.4Zm0-.019V18.36h-.4v1.311h.4Zm-.2-1.511H8.615v.4h2.154v-.4Zm-2.354.2v1.311h.4V18.36h-.4Zm0 1.311V19.689h.4V19.67h-.4Zm0 .019c0 .648-.43 1.111-.877 1.111v.4c.737 0 1.277-.72 1.277-1.511h-.4ZM7.538 20.8c-.445 0-.876-.463-.876-1.111h-.4c0 .791.54 1.511 1.276 1.511v-.4Zm-.876-1.111V19.67h-.4V19.689h.4Zm0-.019V18.36h-.4v1.311h.4Zm-.2-1.511H4.308v.4h2.154v-.4Zm-2.354.2v1.311h.4V18.36h-.4Zm0 1.311V19.689h.4V19.67h-.4Zm0 .019c0 .648-.431 1.111-.877 1.111v.4c.736 0 1.277-.72 1.277-1.511h-.4ZM3.23 20.8c-.446 0-.877-.463-.877-1.111h-.4c0 .791.54 1.511 1.277 1.511v-.4Zm-.877-1.111V19.67h-.4V19.689h.4Zm0-.019V18.36h-.4v1.311h.4Zm-.2-1.511H1.077v.4h1.077v-.4Zm-1.077 0c-.446 0-.877-.463-.877-1.111h-.4c0 .791.54 1.51 1.277 1.51v-.4ZM.2 17.048v-5.246h-.4v5.246h.4Zm0-5.246c0-.648.431-1.111.877-1.111v-.4c-.737 0-1.277.72-1.277 1.511h.4Zm.877-1.111c.754 0 1.277-.699 1.277-1.512h-.4c0 .67-.414 1.112-.877 1.112v.4Zm1.277-1.512v-.002h-.4v.002h.4Zm0-.002c0-.809-.524-1.509-1.275-1.509v.4c.46 0 .875.444.875 1.109h.4ZM1.079 7.668h-.002v.4h.002v-.4Zm-.002 0C.63 7.668.2 7.205.2 6.557h-.4c0 .792.54 1.511 1.277 1.511v-.4ZM.2 6.557V1.31h-.4v5.246h.4Zm0-5.246C.2.663.631.2 1.077.2v-.4C.34-.2-.2.52-.2 1.311h.4ZM1.077.2h4.308v-.4H1.077v.4Zm4.308 0H5.4v-.4H5.384v.4ZM5.4.2c.445 0 .877.463.877 1.111h.4C6.677.52 6.137-.2 5.4-.2v.4Zm.877 1.111c0 .648-.432 1.112-.877 1.112v.4c.736 0 1.277-.72 1.277-1.512h-.4ZM5.4 2.423H5.384v.4H5.4v-.4Zm-.015 0H2.154v.4h3.23v-.4Zm-3.431.2V5.79h.4V2.623h-.4Zm.112 3.348c1.135.553 2.042 1.648 2.042 3.206h.4c0-1.737-1.02-2.957-2.266-3.566l-.176.36Zm2.042 3.206v.002h.4v-.002h-.4Zm0 .002c0 1.56-.906 2.656-2.042 3.21l.175.359c1.25-.609 2.267-1.83 2.267-3.569h-.4Zm-2.154 3.389v3.168h.4v-3.168h-.4Zm.2 3.368h23.692v-.4H2.154v.4Z" mask="url(#a)"/></svg>